<svg width="711" height="237" viewBox="0 0 711 237" fill="none" xmlns="http://www.w3.org/2000/svg">
    <style>
        @media (prefers-color-scheme: dark) {
        [stroke="black"] { stroke: white; }
        [fill="black"] { fill: white; }
        }
    </style>
    <g clip-path="url(#clip0_8_28)">
        <path fill-rule="evenodd" clip-rule="evenodd" d="M93.5781 53.1268C95.1591 51.4354 97.8409 51.4354 99.4219 53.1268L106.5 60.6991V73.7616L96.5 63.0634L82.875 77.6415C81.1148 79.5246 78.8513 80.8173 76.3906 81.3954L90.1016 85.5702C91.137 85.8854 92.2535 85.7671 93.1963 85.2479L93.3828 85.1386L106.5 76.9618V87.4706L98.2344 92.6239C98.7796 92.8339 99.2882 93.1665 99.7158 93.6239L105.456 99.7645C106.244 100.608 107.359 101.07 108.513 101.031L115.986 100.778C114.491 99.6559 113.239 98.2101 112.339 96.5223L107.527 87.4999H117.637L120.21 92.327C120.753 93.3458 121.71 94.0806 122.835 94.3417L138.477 97.9706C138.79 98.0432 139.085 98.1521 139.359 98.2889L139.724 87.4999H148.649L148.184 101.301C148.145 102.455 148.606 103.57 149.449 104.358L167.873 121.578C169.564 123.159 169.564 125.841 167.873 127.422L149.449 144.641C148.606 145.43 148.145 146.545 148.184 147.699L149.035 172.902C149.111 175.144 147.333 176.993 145.118 177.036L144.902 177.035L119.699 176.183C118.545 176.144 117.43 176.606 116.642 177.449L99.4219 195.873C97.8904 197.511 95.3257 197.563 93.7295 196.027L93.5781 195.873L76.3584 177.449C75.5699 176.606 74.4548 176.144 73.3008 176.183L48.0977 177.035L47.8818 177.036C45.6671 176.993 43.8892 175.144 43.9648 172.902L44.8164 147.699C44.853 146.617 44.4499 145.569 43.7041 144.793L43.5508 144.641L25.127 127.422C23.4356 125.841 23.4355 123.159 25.127 121.578L43.5508 104.358C44.3943 103.57 44.8554 102.455 44.8164 101.301L43.9648 76.0975C43.8868 73.7837 45.7838 71.8867 48.0977 71.9647L73.3008 72.8163C74.3828 72.8529 75.4306 72.4498 76.207 71.704L76.3584 71.5507L93.5781 53.1268ZM103.898 165.014C102.794 164.677 101.598 164.836 100.618 165.446L86.9902 173.94C86.5997 174.184 86.184 174.35 85.7607 174.446L96.5 185.935L110.125 171.358L110.366 171.107C111.578 169.878 113.011 168.918 114.572 168.264L103.898 165.014ZM53.0576 167.941L73 167.268L73.3486 167.261C75.4576 167.246 77.5159 167.749 79.3555 168.697L73.791 158.258C73.2817 157.303 72.4079 156.597 71.374 156.298L71.165 156.243L55.5234 152.613C54.7699 152.438 54.1187 152.062 53.6103 151.557L53.0576 167.941ZM129.966 148.502C128.947 149.045 128.212 150.002 127.951 151.127L124.321 166.769C124.27 166.991 124.2 167.204 124.115 167.407L139.941 167.941L139.269 148C139.212 146.321 139.483 144.668 140.048 143.125L129.966 148.502ZM85.0752 148.969L77.1875 149.234C79.05 150.418 80.6001 152.071 81.6611 154.061L86.7383 163.586L95.8994 157.877L96.1982 157.696C96.2439 157.669 96.29 157.643 96.3359 157.617C95.4278 157.513 94.5482 157.1 93.8711 156.376L88.1328 150.235C87.3443 149.392 86.2292 148.93 85.0752 148.969ZM119.428 148.47C118.783 148.948 117.99 149.237 117.13 149.254L116.914 149.253L108.513 148.969C107.359 148.93 106.244 149.392 105.456 150.235L99.832 156.251C101.901 155.774 104.076 155.811 106.161 156.385L106.497 156.481L116.821 159.625L119.262 149.112L119.346 148.772C119.372 148.671 119.399 148.57 119.428 148.47ZM66.1396 128.597C66.5299 130.634 66.4295 132.759 65.8115 134.789L62.667 145.114L73.1816 147.554C73.216 147.562 73.25 147.571 73.2842 147.579C72.7908 146.89 72.511 146.037 72.542 145.119L72.8252 136.719C72.8617 135.637 72.4578 134.59 71.7119 133.813L71.5586 133.661L66.1396 128.597ZM94.6494 105.855C92.1024 108.58 88.5014 110.072 84.7734 109.946L81.6328 109.84L81.7402 112.979C81.8661 116.707 80.3754 120.308 77.6504 122.855L75.3545 125L77.6504 127.144C80.3754 129.691 81.8661 133.293 81.7402 137.02L81.6328 140.16L84.7734 140.054C88.5014 139.928 92.1024 141.419 94.6494 144.144L96.7939 146.439L98.9395 144.144L99.1807 143.892C101.711 141.328 105.203 139.932 108.814 140.054L111.953 140.16L111.848 137.02C111.726 133.409 113.122 129.917 115.687 127.387L115.938 127.144L118.232 125L115.938 122.855C113.213 120.308 111.722 116.707 111.848 112.979L111.953 109.84L108.814 109.946C105.087 110.072 101.486 108.58 98.9395 105.855L96.7939 103.56L94.6494 105.855ZM129.322 125.953C129.145 126.681 128.761 127.369 128.17 127.922L122.029 133.662C121.186 134.45 120.724 135.565 120.763 136.719L121.041 144.95C122.154 143.251 123.664 141.823 125.464 140.8L125.77 140.631L135.293 135.553L129.584 126.393C129.493 126.248 129.407 126.101 129.322 125.953ZM35.0635 124.5L49.6416 138.125C51.573 139.93 52.8833 142.265 53.4385 144.799L57.2783 132.191C57.5937 131.156 57.4744 130.039 56.9551 129.096L56.8467 128.91L48.3516 115.282C47.8325 114.449 47.6588 113.503 47.7861 112.607L35.0635 124.5ZM136.722 118.394C136.386 119.499 136.544 120.695 137.154 121.675L145.647 135.302C145.74 135.45 145.82 135.602 145.891 135.757L157.936 124.5L143.358 110.875C142.046 109.648 141.02 108.176 140.323 106.564L136.722 118.394ZM72.585 106.173C71.4492 107.727 69.9681 109.027 68.2305 109.953L58.7051 115.031L64.2812 123.977C64.466 123.275 64.8452 122.613 65.418 122.078L71.5586 116.339C72.4022 115.55 72.8641 114.435 72.8252 113.281L72.585 106.173ZM120.642 102.986C120.921 103.555 121.07 104.199 121.047 104.88L120.763 113.281C120.724 114.435 121.186 115.549 122.029 116.338L127.816 121.747C127.479 119.783 127.596 117.745 128.189 115.795L131.332 105.47L120.819 103.03C120.76 103.016 120.701 103.001 120.642 102.986ZM53.7314 101C53.8261 103.802 53.0068 106.533 51.4365 108.798L64.0352 102.083C64.9903 101.574 65.6946 100.7 65.9941 99.6659L66.0498 99.4569L69.6787 83.8153C69.8824 82.9377 70.3589 82.1989 70.9951 81.663L53.0576 81.0575L53.7314 101ZM74.8164 101.135C75.3764 100.867 76.0084 100.725 76.6748 100.748L85.0752 101.031C86.1571 101.068 87.2041 100.664 87.9805 99.9179L88.1328 99.7655L93.0098 94.5448C91.1842 94.7936 89.3059 94.6524 87.5029 94.1034L77.1777 90.9598L74.8164 101.135Z" fill="#FF6200"/>
        <path d="M107.208 12.4167H32.25C26.57 12.4167 21.1226 14.6731 17.1062 18.6895C13.0898 22.7059 10.8334 28.1533 10.8334 33.8334V205.167C10.8334 210.847 13.0898 216.294 17.1062 220.311C21.1226 224.327 26.57 226.583 32.25 226.583H160.75C166.43 226.583 171.878 224.327 175.894 220.311C179.91 216.294 182.167 210.847 182.167 205.167V87.375L107.208 12.4167Z" stroke="black" stroke-width="8.91667" stroke-linecap="round" stroke-linejoin="round"/>
        <path d="M107.208 12.4167V87.375H182.167" stroke="black" stroke-width="8.91667" stroke-linecap="round" stroke-linejoin="round"/>
        <path d="M269.29 132.02V141.306L234.344 127.125V120.287L269.29 106.359V115.307L247.343 123.579L269.29 132.02ZM284.559 150V92.6004H303.467C309.489 92.6004 313.99 94.1198 316.973 97.1586C320.012 100.197 321.531 104.249 321.531 109.314V113.788C321.531 118.852 320.012 122.932 316.973 126.027C313.99 129.066 309.489 130.585 303.467 130.585H294.688V150H284.559ZM303.467 102.308H294.688V120.878H303.467C305.943 120.878 307.828 120.259 309.123 119.021C310.473 117.783 311.149 116.039 311.149 113.788V109.314C311.149 107.119 310.473 105.403 309.123 104.165C307.828 102.927 305.943 102.308 303.467 102.308ZM363.765 150.422C360.895 150.422 358.588 149.831 356.843 148.649C355.155 147.468 353.917 146.005 353.129 144.26C350.71 146.511 348.374 148.171 346.123 149.24C343.872 150.31 341.452 150.844 338.864 150.844C335.093 150.844 332.308 149.634 330.507 147.214C328.763 144.795 327.89 141.728 327.89 138.014C327.89 135.538 328.341 133.371 329.241 131.514C330.198 129.601 331.745 128.109 333.884 127.04C336.022 125.971 338.948 125.436 342.662 125.436C344.125 125.436 345.645 125.549 347.221 125.774C348.796 125.943 350.372 126.168 351.948 126.449V121.469C351.948 119.106 351.3 117.502 350.006 116.658C348.712 115.757 346.967 115.307 344.773 115.307C343.084 115.307 341.227 115.532 339.201 115.982C337.232 116.433 335.093 117.136 332.786 118.093L330.001 109.82C335.684 107.513 340.833 106.359 345.448 106.359C349.612 106.359 352.82 107.063 355.071 108.47C357.378 109.877 358.982 111.734 359.882 114.041C360.783 116.348 361.233 118.824 361.233 121.469V137.929C361.233 138.773 361.458 139.589 361.908 140.377C362.415 141.109 363.371 141.474 364.778 141.474H365.707V150.422H363.765ZM337.26 137.845C337.26 139.364 337.598 140.574 338.273 141.474C338.948 142.319 339.933 142.741 341.227 142.741C342.522 142.741 343.985 142.403 345.617 141.728C347.249 141.052 349.359 139.477 351.948 137.001V133.371C349.021 132.865 346.151 132.611 343.338 132.611C341.143 132.611 339.567 133.062 338.611 133.962C337.71 134.862 337.26 136.157 337.26 137.845ZM409.671 154.305C409.671 158.863 407.87 162.408 404.269 164.941C400.723 167.529 395.771 168.824 389.412 168.824C386.43 168.824 383.278 168.486 379.958 167.811C376.638 167.135 373.571 166.01 370.757 164.434L373.543 156.753C376.244 158.103 378.917 159.06 381.562 159.623C384.207 160.242 386.796 160.551 389.328 160.551C392.873 160.551 395.574 160.073 397.431 159.116C399.288 158.16 400.217 156.894 400.217 155.318C400.217 152.898 398.782 151.688 395.912 151.688H385.783C383.025 151.688 380.802 151.238 379.114 150.338C377.426 149.437 376.188 148.284 375.4 146.877C374.612 145.414 374.218 143.894 374.218 142.319C374.218 140.687 374.556 139.167 375.231 137.76C375.963 136.297 376.948 134.947 378.186 133.709C376.16 132.471 374.528 130.811 373.29 128.728C372.108 126.646 371.517 124.142 371.517 121.216C371.517 117.896 372.221 115.138 373.627 112.944C375.034 110.749 376.948 109.117 379.367 108.048C381.843 106.922 384.573 106.359 387.555 106.359H388.99C390.116 106.359 391.213 106.444 392.282 106.613C393.351 106.725 394.364 106.922 395.321 107.204H410.599V115.476L402.158 114.125C403.002 115.026 403.65 116.151 404.1 117.502C404.606 118.796 404.859 120.4 404.859 122.313C404.859 125.183 404.128 127.659 402.665 129.741C401.258 131.767 399.345 133.343 396.925 134.468C394.561 135.538 391.916 136.072 388.99 136.072H387.555C386.43 136.072 385.361 135.988 384.348 135.819C383.729 136.494 383.278 137.198 382.997 137.929C382.716 138.604 382.575 139.252 382.575 139.871C382.575 141.84 383.841 142.825 386.373 142.825H396.672C400.555 142.825 403.678 143.838 406.041 145.864C408.461 147.833 409.671 150.647 409.671 154.305ZM388.99 128.138C390.735 128.138 392.254 127.547 393.548 126.365C394.899 125.183 395.574 123.467 395.574 121.216C395.574 118.965 394.899 117.248 393.548 116.067C392.254 114.885 390.735 114.294 388.99 114.294H387.555C385.754 114.294 384.179 114.885 382.828 116.067C381.534 117.248 380.887 118.965 380.887 121.216C380.887 123.467 381.534 125.183 382.828 126.365C384.179 127.547 385.754 128.138 387.555 128.138H388.99ZM451.476 147.552C448.549 148.734 445.792 149.578 443.203 150.084C440.615 150.591 438.167 150.844 435.859 150.844C429.5 150.844 424.689 149.043 421.425 145.442C418.161 141.84 416.529 137.057 416.529 131.092V126.027C416.529 122.032 417.261 118.571 418.724 115.645C420.187 112.718 422.269 110.439 424.97 108.807C427.672 107.175 430.851 106.359 434.509 106.359C437.491 106.359 440.277 106.978 442.866 108.216C445.51 109.398 447.649 111.283 449.281 113.872C450.969 116.404 451.813 119.668 451.813 123.664C451.813 124.845 451.729 126.112 451.56 127.462C451.391 128.757 451.11 130.135 450.716 131.598H425.899C426.011 135.087 426.884 137.704 428.516 139.449C430.148 141.193 432.764 142.065 436.366 142.065C438.279 142.065 440.249 141.84 442.275 141.39C444.357 140.94 446.495 140.265 448.69 139.364L451.476 147.552ZM434.509 114.547C431.92 114.547 429.894 115.391 428.431 117.08C427.024 118.712 426.208 121.075 425.983 124.17H442.19C442.247 123.889 442.275 123.636 442.275 123.41C442.275 123.129 442.275 122.876 442.275 122.651C442.275 119.95 441.515 117.924 439.996 116.573C438.476 115.223 436.647 114.547 434.509 114.547ZM462.912 92.6004H473.294V129.404C473.294 133.118 474.11 136.044 475.742 138.182C477.374 140.265 479.991 141.306 483.593 141.306C487.194 141.306 489.811 140.265 491.443 138.182C493.075 136.044 493.891 133.118 493.891 129.404V92.6004H504.273V129.404C504.273 135.875 502.557 141.081 499.124 145.02C495.692 148.903 490.514 150.844 483.593 150.844C476.615 150.844 471.409 148.903 467.977 145.02C464.6 141.081 462.912 135.875 462.912 129.404V92.6004ZM529.553 142.403C531.635 142.403 533.352 142.065 534.702 141.39C536.053 140.659 536.728 139.589 536.728 138.182C536.728 136.944 536.278 135.988 535.378 135.312C534.533 134.581 532.986 133.934 530.735 133.371L525.923 132.105C522.209 131.148 519.452 129.544 517.651 127.293C515.907 125.042 515.034 122.369 515.034 119.274C515.034 115.617 516.301 112.55 518.833 110.074C521.365 107.597 525.276 106.359 530.566 106.359C532.705 106.359 534.955 106.613 537.319 107.119C539.683 107.626 542.159 108.442 544.747 109.567L541.962 117.839C539.598 116.714 537.46 115.926 535.546 115.476C533.633 115.026 531.945 114.801 530.482 114.801C526.486 114.801 524.489 116.151 524.489 118.852C524.489 119.922 524.826 120.766 525.501 121.385C526.233 122.004 527.555 122.566 529.469 123.073L534.28 124.339C538.388 125.408 541.371 127.04 543.228 129.235C545.141 131.43 546.098 134.187 546.098 137.507C546.098 141.446 544.747 144.654 542.046 147.13C539.401 149.606 535.209 150.844 529.469 150.844C524.573 150.844 519.424 149.719 514.022 147.468L516.638 139.449C519.283 140.518 521.675 141.278 523.813 141.728C525.952 142.178 527.865 142.403 529.553 142.403ZM588.561 147.552C585.635 148.734 582.877 149.578 580.289 150.084C577.7 150.591 575.252 150.844 572.945 150.844C566.586 150.844 561.775 149.043 558.511 145.442C555.247 141.84 553.615 137.057 553.615 131.092V126.027C553.615 122.032 554.346 118.571 555.81 115.645C557.273 112.718 559.355 110.439 562.056 108.807C564.757 107.175 567.937 106.359 571.595 106.359C574.577 106.359 577.363 106.978 579.951 108.216C582.596 109.398 584.734 111.283 586.366 113.872C588.055 116.404 588.899 119.668 588.899 123.664C588.899 124.845 588.814 126.112 588.646 127.462C588.477 128.757 588.195 130.135 587.801 131.598H562.985C563.097 135.087 563.969 137.704 565.601 139.449C567.233 141.193 569.85 142.065 573.452 142.065C575.365 142.065 577.334 141.84 579.36 141.39C581.442 140.94 583.581 140.265 585.776 139.364L588.561 147.552ZM571.595 114.547C569.006 114.547 566.98 115.391 565.517 117.08C564.11 118.712 563.294 121.075 563.069 124.17H579.276C579.332 123.889 579.36 123.636 579.36 123.41C579.36 123.129 579.36 122.876 579.36 122.651C579.36 119.95 578.601 117.924 577.081 116.573C575.562 115.223 573.733 114.547 571.595 114.547ZM617.471 87.5358H627.431L600.082 162.071H590.121L617.471 87.5358ZM668.924 127.378L633.978 141.306V132.358L655.925 124.086L633.978 115.645V106.359L668.924 120.541V127.378Z" fill="black"/>
    </g>
    <defs>
        <clipPath id="clip0_8_28">
            <rect width="711" height="237" fill="white"/>
        </clipPath>
    </defs>
</svg>