<svg width="929" height="418" viewBox="0 0 929 418" fill="none" xmlns="http://www.w3.org/2000/svg">
    <style>
        @media (prefers-color-scheme: dark) {
            [stroke="black"] { stroke: white; }
            [fill="black"] { fill: white; }
        }
    </style>
    <path fill-rule="evenodd" clip-rule="evenodd" d="M201.578 137.127C203.159 135.435 205.841 135.435 207.422 137.127L214.5 144.699V157.762L204.5 147.063L190.875 161.641C189.115 163.525 186.851 164.817 184.391 165.395L198.102 169.57C199.137 169.885 200.253 169.767 201.196 169.248L201.383 169.139L214.5 160.962V171.471L206.234 176.624C206.78 176.834 207.288 177.166 207.716 177.624L213.456 183.765C214.244 184.608 215.359 185.07 216.513 185.031L223.986 184.778C222.491 183.656 221.239 182.21 220.339 180.522L215.527 171.5H225.637L228.21 176.327C228.753 177.346 229.71 178.081 230.835 178.342L246.477 181.971C246.79 182.043 247.085 182.152 247.359 182.289L247.724 171.5H256.649L256.184 185.301C256.145 186.455 256.606 187.57 257.449 188.358L275.873 205.578C277.564 207.159 277.564 209.841 275.873 211.422L257.449 228.641C256.606 229.43 256.145 230.545 256.184 231.699L257.035 256.902C257.111 259.144 255.333 260.993 253.118 261.036L252.902 261.035L227.699 260.183C226.545 260.144 225.43 260.606 224.642 261.449L207.422 279.873C205.89 281.511 203.326 281.563 201.729 280.027L201.578 279.873L184.358 261.449C183.57 260.606 182.455 260.144 181.301 260.183L156.098 261.035L155.882 261.036C153.667 260.993 151.889 259.144 151.965 256.902L152.816 231.699C152.853 230.617 152.45 229.569 151.704 228.793L151.551 228.641L133.127 211.422C131.436 209.841 131.436 207.159 133.127 205.578L151.551 188.358C152.394 187.57 152.855 186.455 152.816 185.301L151.965 160.098C151.887 157.784 153.784 155.887 156.098 155.965L181.301 156.816C182.383 156.853 183.431 156.45 184.207 155.704L184.358 155.551L201.578 137.127ZM211.898 249.014C210.794 248.677 209.598 248.836 208.618 249.446L194.99 257.94C194.6 258.184 194.184 258.35 193.761 258.446L204.5 269.935L218.125 255.358L218.366 255.107C219.578 253.878 221.011 252.918 222.572 252.264L211.898 249.014ZM161.058 251.941L181 251.268L181.349 251.261C183.458 251.246 185.516 251.749 187.355 252.697L181.791 242.258C181.282 241.303 180.408 240.597 179.374 240.298L179.165 240.243L163.523 236.613C162.77 236.438 162.119 236.062 161.61 235.557L161.058 251.941ZM237.966 232.502C236.947 233.045 236.212 234.002 235.951 235.127L232.321 250.769C232.27 250.991 232.2 251.204 232.115 251.407L247.941 251.941L247.269 232C247.212 230.321 247.483 228.668 248.048 227.125L237.966 232.502ZM193.075 232.969L185.187 233.234C187.05 234.418 188.6 236.071 189.661 238.061L194.738 247.586L203.899 241.877L204.198 241.696C204.244 241.669 204.29 241.643 204.336 241.617C203.428 241.513 202.548 241.1 201.871 240.376L196.133 234.235C195.344 233.392 194.229 232.93 193.075 232.969ZM227.428 232.47C226.783 232.948 225.99 233.237 225.13 233.254L224.914 233.253L216.513 232.969C215.359 232.93 214.244 233.392 213.456 234.235L207.832 240.251C209.901 239.774 212.076 239.811 214.161 240.385L214.497 240.481L224.821 243.625L227.262 233.112L227.346 232.772C227.372 232.671 227.399 232.57 227.428 232.47ZM174.14 212.597C174.53 214.634 174.429 216.759 173.812 218.789L170.667 229.114L181.182 231.554C181.216 231.562 181.25 231.571 181.284 231.579C180.791 230.89 180.511 230.037 180.542 229.119L180.825 220.719C180.862 219.637 180.458 218.59 179.712 217.813L179.559 217.661L174.14 212.597ZM202.649 189.855C200.102 192.58 196.501 194.072 192.773 193.946L189.633 193.84L189.74 196.979C189.866 200.707 188.375 204.308 185.65 206.855L183.354 209L185.65 211.144C188.375 213.691 189.866 217.293 189.74 221.02L189.633 224.16L192.773 224.054C196.501 223.928 200.102 225.419 202.649 228.144L204.794 230.439L206.939 228.144L207.181 227.892C209.711 225.328 213.203 223.932 216.814 224.054L219.953 224.16L219.848 221.02C219.726 217.409 221.122 213.917 223.687 211.387L223.938 211.144L226.232 209L223.938 206.855C221.213 204.308 219.722 200.707 219.848 196.979L219.953 193.84L216.814 193.946C213.087 194.072 209.486 192.58 206.939 189.855L204.794 187.56L202.649 189.855ZM237.322 209.953C237.145 210.681 236.761 211.369 236.17 211.922L230.029 217.662C229.186 218.45 228.724 219.565 228.763 220.719L229.041 228.95C230.154 227.251 231.664 225.823 233.464 224.8L233.77 224.631L243.293 219.553L237.584 210.393C237.493 210.248 237.407 210.101 237.322 209.953ZM143.063 208.5L157.642 222.125C159.573 223.93 160.883 226.265 161.438 228.799L165.278 216.191C165.594 215.156 165.474 214.039 164.955 213.096L164.847 212.91L156.352 199.282C155.832 198.449 155.659 197.503 155.786 196.607L143.063 208.5ZM244.722 202.394C244.386 203.499 244.544 204.695 245.154 205.675L253.647 219.302C253.74 219.45 253.82 219.602 253.891 219.757L265.936 208.5L251.358 194.875C250.046 193.648 249.02 192.176 248.323 190.564L244.722 202.394ZM180.585 190.173C179.449 191.727 177.968 193.027 176.23 193.953L166.705 199.031L172.281 207.977C172.466 207.275 172.845 206.613 173.418 206.078L179.559 200.339C180.402 199.55 180.864 198.435 180.825 197.281L180.585 190.173ZM228.642 186.986C228.921 187.555 229.07 188.199 229.047 188.88L228.763 197.281C228.724 198.435 229.186 199.549 230.029 200.338L235.816 205.747C235.479 203.783 235.596 201.745 236.189 199.795L239.332 189.47L228.819 187.03C228.76 187.016 228.701 187.001 228.642 186.986ZM161.731 185C161.826 187.802 161.007 190.533 159.437 192.798L172.035 186.083C172.99 185.574 173.695 184.7 173.994 183.666L174.05 183.457L177.679 167.815C177.882 166.938 178.359 166.199 178.995 165.663L161.058 165.057L161.731 185ZM182.816 185.135C183.376 184.867 184.008 184.725 184.675 184.748L193.075 185.031C194.157 185.068 195.204 184.664 195.98 183.918L196.133 183.766L201.01 178.545C199.184 178.794 197.306 178.652 195.503 178.103L185.178 174.96L182.816 185.135Z" fill="#FF6200"/>
    <path d="M215.208 96.4167H140.25C134.57 96.4167 129.123 98.6731 125.106 102.689C121.09 106.706 118.833 112.153 118.833 117.833V289.167C118.833 294.847 121.09 300.294 125.106 304.311C129.123 308.327 134.57 310.583 140.25 310.583H268.75C274.43 310.583 279.878 308.327 283.894 304.311C287.91 300.294 290.167 294.847 290.167 289.167V171.375L215.208 96.4167Z" stroke="black" stroke-width="8.91667" stroke-linecap="round" stroke-linejoin="round"/>
    <path d="M215.208 96.4167V171.375H290.167" stroke="black" stroke-width="8.91667" stroke-linecap="round" stroke-linejoin="round"/>
    <path d="M395.29 218.949V228.234L360.344 214.053V207.216L395.29 193.288V202.236L373.343 210.508L395.29 218.949ZM410.559 236.929V179.529H429.467C435.489 179.529 439.99 181.049 442.973 184.087C446.012 187.126 447.531 191.178 447.531 196.243V200.716C447.531 205.781 446.012 209.861 442.973 212.956C439.99 215.995 435.489 217.514 429.467 217.514H420.688V236.929H410.559ZM429.467 189.237H420.688V207.807H429.467C431.943 207.807 433.828 207.188 435.123 205.95C436.473 204.712 437.149 202.967 437.149 200.716V196.243C437.149 194.048 436.473 192.332 435.123 191.094C433.828 189.856 431.943 189.237 429.467 189.237ZM489.765 237.351C486.895 237.351 484.588 236.76 482.843 235.578C481.155 234.396 479.917 232.933 479.129 231.189C476.71 233.44 474.374 235.1 472.123 236.169C469.872 237.238 467.452 237.773 464.864 237.773C461.093 237.773 458.308 236.563 456.507 234.143C454.763 231.723 453.89 228.657 453.89 224.942C453.89 222.466 454.341 220.3 455.241 218.443C456.198 216.529 457.745 215.038 459.884 213.969C462.022 212.9 464.948 212.365 468.662 212.365C470.125 212.365 471.645 212.478 473.221 212.703C474.796 212.872 476.372 213.097 477.948 213.378V208.398C477.948 206.034 477.3 204.431 476.006 203.586C474.712 202.686 472.967 202.236 470.773 202.236C469.084 202.236 467.227 202.461 465.201 202.911C463.232 203.361 461.093 204.065 458.786 205.021L456.001 196.749C461.684 194.442 466.833 193.288 471.448 193.288C475.612 193.288 478.82 193.992 481.071 195.399C483.378 196.805 484.982 198.662 485.882 200.97C486.783 203.277 487.233 205.753 487.233 208.398V224.858C487.233 225.702 487.458 226.518 487.908 227.306C488.415 228.038 489.371 228.403 490.778 228.403H491.707V237.351H489.765ZM463.26 224.774C463.26 226.293 463.598 227.503 464.273 228.403C464.948 229.247 465.933 229.669 467.227 229.669C468.522 229.669 469.985 229.332 471.617 228.657C473.249 227.981 475.359 226.406 477.948 223.93V220.3C475.021 219.793 472.151 219.54 469.338 219.54C467.143 219.54 465.567 219.99 464.611 220.891C463.71 221.791 463.26 223.085 463.26 224.774ZM535.671 241.234C535.671 245.792 533.87 249.337 530.269 251.87C526.723 254.458 521.771 255.753 515.412 255.753C512.43 255.753 509.278 255.415 505.958 254.74C502.638 254.064 499.571 252.939 496.757 251.363L499.543 243.682C502.244 245.032 504.917 245.989 507.562 246.552C510.207 247.171 512.796 247.48 515.328 247.48C518.873 247.48 521.574 247.002 523.431 246.045C525.288 245.089 526.217 243.822 526.217 242.247C526.217 239.827 524.782 238.617 521.912 238.617H511.783C509.025 238.617 506.802 238.167 505.114 237.266C503.426 236.366 502.188 235.212 501.4 233.806C500.612 232.342 500.218 230.823 500.218 229.247C500.218 227.615 500.556 226.096 501.231 224.689C501.963 223.226 502.948 221.876 504.186 220.637C502.16 219.399 500.528 217.739 499.29 215.657C498.108 213.575 497.517 211.071 497.517 208.145C497.517 204.824 498.221 202.067 499.627 199.872C501.034 197.678 502.948 196.046 505.367 194.977C507.843 193.851 510.573 193.288 513.555 193.288H514.99C516.116 193.288 517.213 193.373 518.282 193.542C519.351 193.654 520.364 193.851 521.321 194.132H536.599V202.405L528.158 201.054C529.002 201.954 529.65 203.08 530.1 204.431C530.606 205.725 530.859 207.329 530.859 209.242C530.859 212.112 530.128 214.588 528.665 216.67C527.258 218.696 525.345 220.272 522.925 221.397C520.561 222.466 517.916 223.001 514.99 223.001H513.555C512.43 223.001 511.361 222.917 510.348 222.748C509.729 223.423 509.278 224.126 508.997 224.858C508.716 225.533 508.575 226.18 508.575 226.799C508.575 228.769 509.841 229.754 512.373 229.754H522.672C526.555 229.754 529.678 230.767 532.041 232.793C534.461 234.762 535.671 237.576 535.671 241.234ZM514.99 215.066C516.735 215.066 518.254 214.475 519.548 213.294C520.899 212.112 521.574 210.396 521.574 208.145C521.574 205.894 520.899 204.177 519.548 202.996C518.254 201.814 516.735 201.223 514.99 201.223H513.555C511.754 201.223 510.179 201.814 508.828 202.996C507.534 204.177 506.887 205.894 506.887 208.145C506.887 210.396 507.534 212.112 508.828 213.294C510.179 214.475 511.754 215.066 513.555 215.066H514.99ZM577.476 234.481C574.549 235.663 571.792 236.507 569.203 237.013C566.615 237.52 564.167 237.773 561.859 237.773C555.5 237.773 550.689 235.972 547.425 232.371C544.161 228.769 542.529 223.986 542.529 218.021V212.956C542.529 208.961 543.261 205.5 544.724 202.574C546.187 199.647 548.269 197.368 550.97 195.736C553.672 194.104 556.851 193.288 560.509 193.288C563.491 193.288 566.277 193.907 568.866 195.145C571.51 196.327 573.649 198.212 575.281 200.801C576.969 203.333 577.813 206.597 577.813 210.593C577.813 211.774 577.729 213.04 577.56 214.391C577.391 215.685 577.11 217.064 576.716 218.527H551.899C552.011 222.016 552.884 224.633 554.516 226.377C556.148 228.122 558.764 228.994 562.366 228.994C564.279 228.994 566.249 228.769 568.275 228.319C570.357 227.869 572.495 227.193 574.69 226.293L577.476 234.481ZM560.509 201.476C557.92 201.476 555.894 202.32 554.431 204.008C553.024 205.64 552.208 208.004 551.983 211.099H568.19C568.247 210.818 568.275 210.564 568.275 210.339C568.275 210.058 568.275 209.805 568.275 209.58C568.275 206.878 567.515 204.853 565.996 203.502C564.476 202.151 562.647 201.476 560.509 201.476ZM588.912 179.529H599.294V216.333C599.294 220.047 600.11 222.973 601.742 225.111C603.374 227.193 605.991 228.234 609.593 228.234C613.194 228.234 615.811 227.193 617.443 225.111C619.075 222.973 619.891 220.047 619.891 216.333V179.529H630.273V216.333C630.273 222.804 628.557 228.009 625.124 231.949C621.692 235.831 616.514 237.773 609.593 237.773C602.615 237.773 597.409 235.831 593.977 231.949C590.6 228.009 588.912 222.804 588.912 216.333V179.529ZM655.553 229.332C657.635 229.332 659.352 228.994 660.702 228.319C662.053 227.587 662.728 226.518 662.728 225.111C662.728 223.873 662.278 222.917 661.378 222.241C660.533 221.51 658.986 220.863 656.735 220.3L651.923 219.034C648.209 218.077 645.452 216.473 643.651 214.222C641.907 211.971 641.034 209.298 641.034 206.203C641.034 202.545 642.301 199.478 644.833 197.002C647.365 194.526 651.276 193.288 656.566 193.288C658.705 193.288 660.955 193.542 663.319 194.048C665.683 194.554 668.159 195.37 670.747 196.496L667.962 204.768C665.598 203.643 663.46 202.855 661.546 202.405C659.633 201.954 657.945 201.729 656.482 201.729C652.486 201.729 650.489 203.08 650.489 205.781C650.489 206.85 650.826 207.694 651.501 208.313C652.233 208.932 653.555 209.495 655.469 210.002L660.28 211.268C664.388 212.337 667.371 213.969 669.228 216.164C671.141 218.358 672.098 221.116 672.098 224.436C672.098 228.375 670.747 231.583 668.046 234.059C665.401 236.535 661.209 237.773 655.469 237.773C650.573 237.773 645.424 236.647 640.022 234.396L642.638 226.377C645.283 227.447 647.675 228.206 649.813 228.657C651.952 229.107 653.865 229.332 655.553 229.332ZM714.561 234.481C711.635 235.663 708.877 236.507 706.289 237.013C703.7 237.52 701.252 237.773 698.945 237.773C692.586 237.773 687.775 235.972 684.511 232.371C681.247 228.769 679.615 223.986 679.615 218.021V212.956C679.615 208.961 680.346 205.5 681.81 202.574C683.273 199.647 685.355 197.368 688.056 195.736C690.757 194.104 693.937 193.288 697.595 193.288C700.577 193.288 703.363 193.907 705.951 195.145C708.596 196.327 710.734 198.212 712.366 200.801C714.055 203.333 714.899 206.597 714.899 210.593C714.899 211.774 714.814 213.04 714.646 214.391C714.477 215.685 714.195 217.064 713.801 218.527H688.985C689.097 222.016 689.969 224.633 691.601 226.377C693.233 228.122 695.85 228.994 699.452 228.994C701.365 228.994 703.334 228.769 705.36 228.319C707.442 227.869 709.581 227.193 711.776 226.293L714.561 234.481ZM697.595 201.476C695.006 201.476 692.98 202.32 691.517 204.008C690.11 205.64 689.294 208.004 689.069 211.099H705.276C705.332 210.818 705.36 210.564 705.36 210.339C705.36 210.058 705.36 209.805 705.36 209.58C705.36 206.878 704.601 204.853 703.081 203.502C701.562 202.151 699.733 201.476 697.595 201.476ZM743.471 174.465H753.431L726.082 249H716.121L743.471 174.465ZM794.924 214.307L759.978 228.234V219.287L781.925 211.015L759.978 202.574V193.288L794.924 207.469V214.307Z" fill="black"/>
</svg>